<svg width="306px" height="182px" viewBox="0 0 306 182" version="1.1" xmlns="http://www.w3.org/2000/svg" xmlns:xlink="http://www.w3.org/1999/xlink">
    <g id="Page-1" stroke="none" stroke-width="1" fill="none" fill-rule="evenodd">
        <g id="Mobile-Copy-34" transform="translate(-35.000000, -209.000000)">
            <g id="Logo-Main" transform="translate(35.000000, 209.817328)">
                <path d="M304.954002,91.1831584 C303.526268,137.711468 235.806748,175.183077 152.477001,175.183077 C69.1472541,175.183077 1.42773394,137.711468 -2.53389323e-13,91.1831584 L24.0467426,91.1826528 C26.2968918,123.394099 82.7120519,149.183077 151.977001,149.183077 C221.24195,149.183077 277.65711,123.394099 279.907259,91.1826528 L304.954002,91.1831584 Z" id="drei" fill="#350C0C"></path>
                <path d="M305,95.1826721 C305,142.679161 236.723424,181.182672 152.5,181.182672 C68.2765757,181.182672 0,142.679161 0,95.1826721 C0,93.8413174 0.0544547812,92.5071351 0.162185666,91.18079 L24.3476674,91.1806799 C24.1172467,92.6670615 24,94.1683697 24,95.6826721 C24,129.095899 81.0836944,156.182672 151.5,156.182672 C221.916306,156.182672 279,129.095899 279,95.6826721 C279,94.1683697 278.882753,92.6670615 278.652333,91.1806799 L304.837814,91.18079 C304.945545,92.5071351 305,93.8413174 305,95.1826721 Z" id="Zwei" fill-opacity="0.24" fill="#000000"></path>
                <path d="M0,91.1826721 C66.8926332,151.182672 117.725967,181.182672 152.5,181.182672 C187.274033,181.182672 238.202368,151.182672 305.285004,91.1826721 L279.709972,91.1826721 C276.225959,111.933225 265.486376,126.933225 247.491224,136.182672 C220.498497,150.056843 199.190817,156.182672 153.25,156.182672 C107.309183,156.182672 98.8200593,155.011918 61.8649215,136.182672 C37.2281631,123.629841 25.1658674,108.629841 25.6780346,91.1826721 L0,91.1826721 Z" id="eine" fill="#393022"></path>
                <text id="BLACKJACK-Copy" font-family="Times-Bold, Times" font-size="20" font-weight="bold" letter-spacing="1.2" fill="#B2DABA">
                    <tspan x="86" y="79.1826721">BLACKJACK</tspan>
                </text>
                <text id="CITY" font-family="Times-Bold, Times" font-size="11" font-weight="bold" letter-spacing="1.65" fill="#D2F4DD">
                    <tspan x="137" y="95.1826721">CITY</tspan>
                </text>
                <line x1="114.5" y1="104.682672" x2="191" y2="105.182672" id="Line" stroke-opacity="0" stroke="#000000" stroke-width="2" stroke-linecap="square"></line>
                <ellipse id="Oval-red" transform="translate(151.449400, 74.747867) rotate(181.000000) translate(-151.449400, -74.747867) " cx="151.4494" cy="74.7478668" rx="129.432515" ry="72.5"></ellipse>
                <g id="Dealer-must-draw-to" transform="translate(153.041490, 116.332402) rotate(-1.000000) translate(-153.041490, -116.332402) translate(26.941994, 85.558918)" fill="#E3F4E9" fill-rule="nonzero">
                    <path d="M2.35452922,5.33216444 C2.50580214,5.67639184 2.66705958,5.96380103 2.83830152,6.194392 C3.00954347,6.42498297 3.20724889,6.59151394 3.43141781,6.69398491 C3.65558672,6.79645587 3.91068575,6.83508855 4.19671491,6.80988292 C4.48274406,6.7846773 4.8161823,6.6883916 5.19702964,6.52102582 C5.57787698,6.35366004 5.87430164,6.17314848 6.08630362,5.97949115 C6.2983056,5.78583383 6.44236387,5.57178894 6.51847844,5.33735649 C6.594593,5.10292404 6.60562121,4.84466375 6.55156306,4.56257561 C6.49750491,4.28048748 6.39483938,3.96732971 6.24356646,3.62310231 L5.49524829,1.92027527 L1.60621106,3.6293374 L2.35452922,5.33216444 Z M7.38147518,3.64734566 C7.55849668,4.05016496 7.66485664,4.45126788 7.70055505,4.85065444 C7.73625346,5.250041 7.6914129,5.63020587 7.56603336,5.99114904 C7.44065382,6.3520922 7.22888109,6.68546334 6.93071518,6.99126243 C6.63254926,7.29706153 6.23811273,7.55778327 5.74740558,7.77342764 C5.25669844,7.98907202 4.79789045,8.10331401 4.37098163,8.11615361 C3.9440728,8.12899322 3.55527857,8.05954505 3.20459894,7.90780911 C2.85391931,7.75607317 2.54354649,7.53200909 2.27348049,7.23561686 C2.00341449,6.93922463 1.77987074,6.58961886 1.60284923,6.18679956 L1.8189894e-12,2.53945391 L0.197747656,2.45255244 C0.271774829,2.62100415 0.374704302,2.67626285 0.506536072,2.61832854 L5.4941714,0.426480489 C5.62600317,0.36854618 5.65490547,0.255353171 5.58087829,0.0869014645 L5.77862595,0 L7.38147518,3.64734566 Z" id="Shape"></path>
                    <path d="M9.91826738,12.3874498 C10.0467074,12.3061654 10.0446164,12.1607431 9.91199437,11.9511831 L8.34619892,9.47702292 L7.33219885,10.1187424 L8.32044679,11.6803025 C8.393175,11.7952225 8.45510162,11.8743748 8.50622666,11.9177595 C8.55735169,11.9611442 8.62009422,11.9593068 8.69445422,11.9122474 L8.80996372,12.0947674 L7.73512364,12.77499 L7.60677975,12.57219 C7.69397415,12.5454106 7.72249163,12.4894932 7.69233221,12.4044379 C7.66217278,12.3193826 7.60431177,12.2092549 7.51874918,12.0740549 L6.58183879,10.5936148 L5.3853187,11.3508437 L7.02812048,13.9466839 C7.07945804,14.0278039 7.14082934,14.0836391 7.21223438,14.1141893 C7.28363942,14.1447396 7.34976194,14.1407632 7.41060194,14.10226 L7.52611144,14.28478 L6.46141136,14.9585855 L6.34590186,14.7760655 C6.40674187,14.7375623 6.42342935,14.6891316 6.39596432,14.6307735 C6.36849928,14.5724154 6.32909798,14.5026763 6.27776043,14.4215563 L3.92265006,10.700176 L4.10517007,10.5846665 C4.12656072,10.6184665 4.15978137,10.6447798 4.20483202,10.6636063 C4.24988267,10.6824329 4.299448,10.6747336 4.353528,10.6405086 L8.14588828,8.24047788 C8.19996829,8.20625284 8.22814297,8.1647536 8.23041232,8.11598014 C8.23268167,8.06720668 8.22312103,8.02591995 8.20173038,7.99211995 L8.38425039,7.87661045 L10.6623544,11.4763107 C10.7949764,11.6858707 10.9221275,11.7521476 11.0438075,11.6751412 L11.159317,11.8576613 L10.0337769,12.5699698 L9.91826738,12.3874498 Z" id="Path"></path>
                    <path d="M11.6018427,17.5463815 L12.5417685,15.5152293 L10.4434371,16.1374555 L11.6018427,17.5463815 Z M7.51770334,15.7155528 C7.59103105,15.7795453 7.67610026,15.8105813 7.77291095,15.8086606 C7.86972165,15.80674 7.95300645,15.7978157 8.02276536,15.7818879 L12.170814,14.6861522 C12.2878113,14.6520991 12.3814642,14.6242935 12.4517725,14.6027356 C12.5220807,14.5811777 12.5819529,14.5500758 12.6313889,14.50943 C12.6684659,14.4789457 12.6852881,14.4521686 12.6818555,14.4290987 C12.678423,14.4060289 12.6752651,14.380144 12.6723819,14.351444 L12.8392284,14.2142644 L13.9900129,15.6139212 L13.8231664,15.7511008 C13.7955652,15.7427238 13.7697836,15.7302615 13.7458216,15.713714 C13.7218595,15.6971664 13.6882502,15.7066752 13.6449937,15.7422403 C13.6079167,15.7727247 13.574547,15.8234638 13.5448845,15.8944577 C13.515222,15.9654516 13.4791054,16.0443414 13.4365345,16.1311268 L11.5196058,20.2239157 C11.489394,20.3005397 11.4771712,20.3675517 11.4829376,20.4249516 C11.4887039,20.4823515 11.5031901,20.5377604 11.5263962,20.5911784 L11.3595497,20.728358 L10.2773551,19.4121245 L10.4163938,19.2978081 C10.4417974,19.3287056 10.4777405,19.3535269 10.524223,19.372272 C10.5707055,19.3910171 10.6186647,19.3800667 10.6681007,19.3394209 C10.7051777,19.3089365 10.7340843,19.274813 10.7548203,19.2370504 C10.7755564,19.1992878 10.8030213,19.1508143 10.8372151,19.09163 L11.159793,18.4069581 L9.52887991,16.4233386 L8.8149499,16.5753384 C8.74519099,16.5912662 8.68387726,16.6080181 8.63100869,16.6255941 C8.57814013,16.64317 8.53625709,16.6646598 8.50535959,16.6900635 C8.45592359,16.7307093 8.4377279,16.7715617 8.45077253,16.8126206 C8.46381716,16.8536796 8.49320275,16.9020168 8.53892928,16.9576323 L8.37208278,17.0948119 L7.35085683,15.8527324 L7.51770334,15.7155528 Z" id="Shape"></path>
                    <path d="M17.3212629,19.275692 L17.1673665,19.4272569 C17.0382557,19.29616 16.9309513,19.2727129 16.8454533,19.3569156 L13.9983707,22.1608658 L16.2718438,24.4693111 C16.339206,24.5377095 16.4110157,24.579271 16.4872731,24.5939956 C16.5635305,24.6087202 16.6301585,24.5880149 16.6871571,24.5318798 L16.838722,24.6857762 L15.9409932,25.5699046 L15.7894284,25.4160082 C15.8350273,25.3711001 15.8382226,25.3230398 15.7990144,25.2718274 C15.7598061,25.220615 15.7065209,25.1608096 15.6391588,25.0924112 L12.3384126,21.7408905 L12.492309,21.5893256 C12.6382604,21.7375221 12.753985,21.769519 12.839483,21.6853163 L16.0371074,18.536135 C16.1226053,18.4519323 16.0923786,18.3357327 15.9464273,18.1875362 L16.1003236,18.0359714 L17.3212629,19.275692 Z" id="Path"></path>
                    <path d="M23.6306263,26.5270242 C23.7297616,26.4118019 23.6853321,26.2733172 23.4973378,26.11157 L21.277792,24.2019102 L20.4951446,25.1115601 L21.8960054,26.3168372 C21.9990991,26.4055373 22.0814253,26.4631775 22.1429841,26.4897578 C22.2045429,26.5163382 22.2640194,26.4962745 22.3214135,26.4295669 L22.4851505,26.5704434 L21.6555442,27.5346723 L21.4736142,27.3781428 C21.5492013,27.3270881 21.5601631,27.2652833 21.5064996,27.1927283 C21.4528361,27.1201733 21.365361,27.0317193 21.2440743,26.9273663 L19.9159855,25.784701 L18.9924615,26.8580879 L21.3211652,28.8616654 C21.3939372,28.9242772 21.4689291,28.9597768 21.5461408,28.9681642 C21.6233525,28.9765516 21.6854378,28.9534557 21.7323967,28.8988767 L21.8961337,29.0397533 L21.0743538,29.9948857 L20.9106168,29.8540091 C20.9575757,29.7994302 20.9594066,29.7482379 20.9161096,29.7004324 C20.8728126,29.6526268 20.8147781,29.5974182 20.7420061,29.5348064 L17.4035909,26.6624902 L17.5444675,26.4987532 C17.5747891,26.5248415 17.6142417,26.5403171 17.6628251,26.5451802 C17.7114086,26.5500433 17.7565709,26.5282175 17.7983121,26.4797028 L20.7254136,23.0776122 C20.7671548,23.0290975 20.7819954,22.9811835 20.7699356,22.9338701 C20.7578757,22.8865567 20.7366849,22.8498558 20.7063632,22.8237676 L20.8472398,22.6600306 L24.0764969,25.4384291 C24.2644912,25.6001762 24.4054473,25.6264708 24.4993649,25.5173128 L24.6631019,25.6581894 L23.7943633,26.6679008 L23.6306263,26.5270242 Z" id="Path"></path>
                    <path d="M27.1896539,30.6017894 C27.8219777,31.065279 28.2847537,31.0970031 28.5779818,30.6969615 C28.696219,30.5356544 28.713812,30.3526503 28.6307609,30.1479493 C28.5477098,29.9432483 28.341651,29.7202959 28.0125845,29.4790921 L26.4833934,28.3582038 L25.6604628,29.4809011 L27.1896539,30.6017894 Z M28.5569144,28.7770771 C29.1311676,29.1980013 29.5098413,29.6218718 29.6929357,30.0486885 C29.87603,30.4755051 29.7996804,30.9179695 29.4638869,31.3760817 C29.3361907,31.5502933 29.1904217,31.6815007 29.0265796,31.7697038 C28.8627376,31.8579069 28.6909317,31.9129953 28.511162,31.9349692 C28.3313923,31.9569431 28.1545195,31.9512835 27.9805437,31.9179905 C27.806568,31.8846974 27.6400074,31.834522 27.480862,31.7674642 L27.4148729,33.8467135 C27.4144668,33.9555245 27.431906,34.0501388 27.4671905,34.1305565 C27.502475,34.2109742 27.5485106,34.2868736 27.6052973,34.3582548 L27.4776012,34.5324665 L25.9968021,33.4470494 L26.1244983,33.2728377 C26.2083779,33.3343211 26.2716005,33.3360274 26.3141658,33.2779569 C26.3614607,33.2134341 26.3863756,33.0779525 26.3889106,32.8715123 L26.461434,31.169014 L25.116133,30.1829161 L24.1016582,31.5669309 C24.0638223,31.6185492 24.0575977,31.6710206 24.0829843,31.7243453 C24.1083709,31.7776699 24.1404211,31.8185207 24.1791348,31.8468976 L24.0514387,32.0211093 L22.7642082,31.0775768 L22.8919043,30.9033652 C23.0080454,30.9884959 23.1015871,30.9826692 23.1725294,30.8858849 L25.8257711,27.2661539 C25.8967134,27.1693697 25.874114,27.0784122 25.7579729,26.9932814 L25.885669,26.8190698 L28.5569144,28.7770771 Z" id="Shape"></path>
                    <path d="M32.6275731,37.5102375 C32.6661724,37.523432 32.7036071,37.5266946 32.7398772,37.5200252 C32.7761473,37.5133558 32.8164033,37.4719861 32.8606452,37.3959161 L35.0687209,33.59933 C35.1250289,33.5025136 35.1505715,33.4387047 35.1453488,33.4079033 C35.1401262,33.377102 35.1133108,33.3476243 35.0649026,33.3194703 L35.1734964,33.132753 L36.6153693,33.9713391 L36.5067754,34.1580565 C36.4376208,34.1178365 36.3849446,34.1288461 36.3487466,34.1910852 C36.3326586,34.218747 36.3236452,34.2620917 36.3217063,34.3211191 C36.3197675,34.3801466 36.3188701,34.4652301 36.3190144,34.5763695 L36.2271195,37.6463616 L38.854412,36.0648262 C38.9510841,36.0099946 39.0283336,35.9646899 39.0861604,35.928912 C39.1439872,35.893134 39.1789336,35.8648718 39.1909996,35.8441255 C39.2271975,35.7818864 39.2176347,35.7346788 39.162311,35.7025029 L39.2709049,35.5157855 L40.7335241,36.3664376 L40.6249302,36.553155 C40.590353,36.533045 40.552477,36.5225848 40.5113025,36.5217745 C40.4701279,36.5209642 40.4334527,36.5482208 40.4012767,36.6035445 L38.1328711,40.5038624 C38.1006951,40.5591861 38.0931284,40.6079994 38.110171,40.6503025 C38.1272136,40.6926056 38.1530235,40.7238121 38.1876008,40.7439221 L38.0790069,40.9306394 L36.8757173,40.2308122 L36.9843112,40.0440948 C37.1295358,40.1285567 37.2219399,40.1128888 37.2615235,39.9970909 L38.9567947,37.0822257 L38.9360483,37.0701597 L35.2782467,39.3017311 L35.1952612,39.2534672 L35.4195383,35.0249748 L35.4299115,35.0310078 L35.4091651,35.0189418 L33.7138939,37.9338071 C33.6535639,38.0375389 33.6821803,38.1235918 33.7997431,38.1919658 L33.6911492,38.3786831 L32.5189792,37.6969548 L32.6275731,37.5102375 Z" id="Path"></path>
                    <path d="M43.9453087,38.1933493 C43.7875634,38.1152955 43.6820814,38.1300454 43.6288629,38.2375991 L42.4101594,40.7005781 C42.2398603,41.0447499 42.2287454,41.3828925 42.3768149,41.7150061 C42.5248844,42.0471197 42.8570479,42.3409009 43.3733055,42.5963496 C43.8895631,42.8517984 44.3246158,42.9376425 44.6784634,42.8538819 C45.0323111,42.7701213 45.2943845,42.5561551 45.4646837,42.2119833 L46.6833872,39.7490043 C46.7366057,39.6414506 46.6735868,39.543325 46.4943307,39.4546276 L46.590124,39.261031 L48.08512,40.000768 L47.9893267,40.1943646 C47.8315814,40.1163108 47.7260994,40.1310608 47.6728809,40.2386144 L46.326453,42.9597223 C46.2164682,43.1819999 46.0607264,43.3704794 45.8592279,43.5251607 C45.6577293,43.6798421 45.4157771,43.7854979 45.1333714,43.8421282 C44.8509656,43.8987584 44.5280504,43.8929468 44.1646258,43.8246933 C43.8012012,43.7564399 43.4043815,43.6158761 42.9741668,43.4030022 C42.5439521,43.1901282 42.1914812,42.9599364 41.9167541,42.7124268 C41.6420269,42.4649172 41.4415143,42.2117322 41.3152161,41.9528717 C41.1889179,41.6940111 41.1261347,41.4375696 41.1268601,41.183547 C41.1275981,40.9295245 41.1829564,40.6913744 41.2929413,40.4690968 L42.6393692,37.7479889 C42.6677524,37.690627 42.666642,37.6387544 42.6360382,37.5923711 C42.6054344,37.5459879 42.5291854,37.4926391 42.4072913,37.4323248 L42.5030845,37.2387282 L44.041102,37.9997527 L43.9453087,38.1933493 Z" id="Path"></path>
                    <path d="M48.8010969,44.0544081 C48.7884635,44.0838087 48.7732029,44.1142573 48.7553153,44.1457538 C48.7374276,44.1772504 48.7205879,44.211374 48.7047962,44.2481248 C48.6574209,44.3583772 48.6838201,44.4894462 48.7839937,44.6413318 C48.8841673,44.7932175 49.0182207,44.9422466 49.1861539,45.0884192 C49.3540871,45.2345919 49.5275474,45.3679018 49.7065348,45.4883488 C49.8855222,45.6087959 50.0301421,45.6927071 50.1403945,45.7400824 C50.2432967,45.7842993 50.3732453,45.8314307 50.5302402,45.8814766 C50.6872352,45.9315225 50.8494988,45.9642409 51.0170313,45.9796319 C51.1845637,45.9950229 51.3379416,45.9825634 51.4771648,45.9422535 C51.616388,45.9019436 51.716004,45.8119622 51.7760127,45.6723092 C51.8454964,45.5106057 51.8059906,45.3543134 51.6574952,45.2034322 C51.5089999,45.052551 51.3074597,44.898468 51.0528748,44.7411832 C50.7982899,44.5838983 50.5216546,44.4171384 50.2229687,44.2409034 C49.9242828,44.0646685 49.6587017,43.872183 49.4262252,43.6634471 C49.1937488,43.4547111 49.0245818,43.225289 48.9187242,42.9751807 C48.8128665,42.7250723 48.8278423,42.4419898 48.9636514,42.125933 C49.1657858,41.6555229 49.5216409,41.3643612 50.0312166,41.2524478 C50.5407923,41.1405344 51.1483877,41.2361786 51.8540029,41.5393803 C52.1994603,41.6878228 52.4834603,41.8425095 52.706003,42.0034404 C52.9285456,42.1643714 53.1101312,42.3142336 53.2507597,42.4530271 C53.3913881,42.5918206 53.5031472,42.7116785 53.5860368,42.8126007 C53.6689265,42.913523 53.7360969,42.9750384 53.787548,42.9971468 C53.8463492,43.0224136 53.8943981,43.032176 53.9316946,43.0264341 C53.9689911,43.0206921 54.0144274,43.0162709 54.0680034,43.0131705 L54.1371682,43.1865609 L53.1405789,43.9860568 L52.9705498,43.8346299 C52.9821497,43.7873706 52.9937497,43.7401113 53.0053496,43.692852 C53.0169496,43.6455927 53.002824,43.5872792 52.9629728,43.5179115 C52.8696616,43.3297918 52.6876028,43.1253056 52.4167964,42.9044529 C52.14599,42.6836003 51.8194827,42.4910569 51.4372745,42.3268226 C51.2902713,42.2636556 51.1466704,42.2128346 51.0064717,42.1743597 C50.866273,42.1358848 50.7352475,42.1165893 50.6133951,42.1164734 C50.4915428,42.1163574 50.3862139,42.1385792 50.2974083,42.1831389 C50.2086027,42.2276986 50.1420914,42.3014296 50.0978745,42.4043318 C50.0283908,42.5660353 50.0686862,42.72049 50.2187607,42.8676961 C50.3688353,43.0149022 50.571165,43.1671477 50.8257499,43.3244326 C51.0803348,43.4817174 51.3569702,43.6484773 51.655656,43.8247123 C51.9543419,44.0009473 52.2191334,44.1952703 52.4500307,44.4076813 C52.680928,44.6200923 52.8469367,44.8568646 52.9480567,45.1179982 C53.0491768,45.3791317 53.0302532,45.671402 52.8912857,45.9948089 C52.7523183,46.3182158 52.5596034,46.5488692 52.3131412,46.6867691 C52.066679,46.824669 51.8005785,46.9018866 51.5148399,46.9184219 C51.2291012,46.9349571 50.9368455,46.9008019 50.6380726,46.8159562 C50.3392998,46.7311105 50.0649607,46.6349956 49.8150554,46.5276117 C49.56515,46.4202278 49.3273468,46.2897454 49.1016458,46.1361646 C48.8759448,45.9825838 48.6754526,45.831128 48.5001693,45.681797 C48.3248859,45.532466 48.1792616,45.400233 48.0632962,45.2850982 C47.9473308,45.1699633 47.8746478,45.1060792 47.8452472,45.0934458 C47.7937961,45.0713373 47.7402201,45.0744377 47.6845192,45.1027469 L47.5775412,44.9261692 L48.615305,43.9092689 L48.8010969,44.0544081 Z" id="Path"></path>
                    <path d="M55.4741243,48.540003 C55.5115251,48.554187 55.5538902,48.5552806 55.6012197,48.543284 C55.6485492,48.5312875 55.6835611,48.4953686 55.7062554,48.4355274 L57.1232299,44.6991924 L55.6646007,44.1460191 C55.6047595,44.1233248 55.5429848,44.1170092 55.4792766,44.1270723 C55.4155684,44.1371354 55.3709487,44.1758277 55.3454177,44.243149 L55.1434536,44.1665558 L55.6327992,42.8762299 L55.8347632,42.9528231 C55.7950482,43.0575452 55.7942793,43.1385354 55.8324564,43.1957936 C55.8706335,43.2530519 55.9196427,43.2930282 55.9794839,43.3157225 L59.9738841,44.8305661 C60.0337253,44.8532604 60.0969184,44.8558359 60.1634633,44.8382927 C60.2300083,44.8207494 60.2831383,44.7596168 60.3228533,44.6548947 L60.5248174,44.7314879 L60.0354718,46.0218138 L59.8335077,45.9452206 C59.8590388,45.8778992 59.8512974,45.8193495 59.8102835,45.7695714 C59.7692696,45.7197933 59.718842,45.6835571 59.6590008,45.6608628 L58.2003716,45.1076895 L56.783397,48.8440245 C56.7408452,48.9562268 56.7868907,49.037859 56.9215334,49.0889211 L56.8449401,49.2908852 L55.3975311,48.7419671 L55.4741243,48.540003 Z" id="Path"></path>
                    <path d="M66.8601706,51.7272605 C67.0970242,51.8007749 67.3277528,51.8535411 67.5523566,51.8855592 C67.7769603,51.9175774 67.9878654,51.899273 68.1850718,51.8306463 C68.3822782,51.7620196 68.5636128,51.6298312 68.7290755,51.4340811 C68.8945383,51.238331 69.0365554,50.949445 69.155127,50.5674231 C69.2736986,50.1854011 69.3190245,49.8706924 69.2911049,49.623297 C69.2631852,49.3759016 69.1861936,49.1719107 69.0601301,49.0113242 C68.9340667,48.8507378 68.7682188,48.7238738 68.5625865,48.6307321 C68.3569542,48.5375905 68.1357113,48.4542625 67.8988577,48.3807481 L66.408972,47.9183189 L65.3702849,51.2648313 L66.8601706,51.7272605 Z M63.8072662,51.4833276 C63.9829963,51.5378706 64.0886471,51.5078387 64.1242186,51.3932322 L65.4545918,47.1069457 C65.4901633,46.9923392 65.420084,46.9077644 65.2443539,46.8532215 L65.3083825,46.6469296 L68.4944457,47.6358166 C68.9452316,47.7757311 69.3085452,47.9680726 69.5843864,48.2128411 C69.8602277,48.4576095 70.0632198,48.727932 70.1933627,49.0238083 C70.3235057,49.3196846 70.3894942,49.6333429 70.3913778,49.9647832 C70.393162,50.2962234 70.3442789,50.6223928 70.2446788,50.9432912 C70.1450787,51.2641897 70.0026002,51.561309 69.8172434,51.8346491 C69.6318866,52.1079893 69.4037181,52.3303475 69.132738,52.5017236 C68.8617579,52.6730998 68.5471103,52.7827577 68.1887951,52.8306974 C67.8304798,52.878637 67.4259293,52.8326496 66.9751434,52.6927351 L63.7432376,51.6896195 L63.8072662,51.4833276 Z" id="Shape"></path>
                    <path d="M75.1399152,51.873558 C75.8974812,52.0754236 76.3401197,51.9367182 76.4678306,51.4574417 C76.5193269,51.2641851 76.4691784,51.0873091 76.317385,50.9268137 C76.1655916,50.7663183 75.8925732,50.6335443 75.4983296,50.5284918 L73.6662567,50.0403067 L73.3078423,51.3853729 L75.1399152,51.873558 Z M75.7501641,49.6766119 C76.4381578,49.8599388 76.9450284,50.11712 77.270776,50.4481555 C77.5965236,50.779191 77.6862726,51.2191332 77.5400231,51.767982 C77.484407,51.9766992 77.3963192,52.1519263 77.2757597,52.2936634 C77.1552001,52.4354004 77.0151818,52.5491847 76.8557047,52.6350162 C76.6962276,52.7208478 76.529402,52.7798838 76.3552281,52.8121242 C76.1810542,52.8443647 76.0076498,52.8581821 75.835015,52.8535766 L76.5295256,54.8145169 C76.5687093,54.9160287 76.6193553,54.9978271 76.6814637,55.0599121 C76.743572,55.1219972 76.8140529,55.1759643 76.8929062,55.2218135 L76.8372902,55.4305307 L75.0631942,54.9577944 L75.1188103,54.7490772 C75.2193037,54.7758553 75.2788198,54.7544582 75.2973585,54.6848858 C75.317957,54.6075831 75.2919077,54.4723151 75.2192107,54.2790817 L74.6677682,52.6667321 L73.0560078,52.2372528 L72.6141693,53.8953948 C72.5976905,53.9572369 72.6109697,54.0083804 72.654007,54.0488254 C72.6970442,54.0892704 72.7417536,54.1156724 72.7881352,54.1280315 L72.7325192,54.3367487 L71.1903312,53.925808 L71.2459472,53.7170909 C71.385092,53.7541682 71.4701133,53.7147299 71.5010111,53.5987759 L72.6565886,49.2620969 C72.6874864,49.146143 72.6333629,49.0696273 72.4942182,49.0325499 L72.5498342,48.8238328 L75.7501641,49.6766119 Z" id="Shape"></path>
                    <path d="M82.2722945,54.385843 L81.7646461,52.2060877 L80.4924354,53.9869975 L82.2722945,54.385843 Z M77.9257071,55.453226 C78.0228826,55.4586051 78.1090536,55.4307742 78.1842201,55.3697333 C78.2593867,55.3086924 78.31958,55.250445 78.3648002,55.1949911 L80.962325,51.7803449 C81.0336539,51.6815513 81.0904142,51.6020385 81.1326059,51.5418068 C81.1747975,51.481575 81.2028906,51.4202335 81.2168852,51.3577823 C81.2273811,51.3109439 81.2241831,51.2794833 81.2072911,51.2634004 C81.190399,51.2473175 81.1719928,51.2288456 81.1520722,51.2079849 L81.1993039,50.9972121 L82.9674534,51.3934336 L82.9202217,51.6042063 C82.8933038,51.6145712 82.865309,51.6205955 82.8362373,51.6222793 C82.8071656,51.623963 82.7865071,51.6521273 82.7742619,51.7067721 C82.7637659,51.7536105 82.7686477,51.8141429 82.7889073,51.8883692 C82.8091669,51.9625956 82.8291914,52.0470172 82.8489808,52.1416342 L83.8537816,56.5479832 C83.8770697,56.6269874 83.9086343,56.6873503 83.9484754,56.7290718 C83.9883165,56.7707934 84.0338101,56.8055832 84.0849563,56.8334412 L84.0377246,57.044214 L82.3749615,56.6716084 L82.4143213,56.4959644 C82.4533533,56.504711 82.4969608,56.5021853 82.545144,56.4883874 C82.5933272,56.4745895 82.624416,56.4364649 82.6384106,56.3740137 C82.6489065,56.3271753 82.6507214,56.2824908 82.6438552,56.2399602 C82.636989,56.1974295 82.6288436,56.1423146 82.619419,56.0746155 L82.4528269,55.3363208 L79.9469727,54.7747884 L79.4774088,55.3336352 C79.4321886,55.3890891 79.3941352,55.4400002 79.3632486,55.4863685 C79.332362,55.5327368 79.3125454,55.5754369 79.3037988,55.6144689 C79.2898043,55.6769201 79.3005736,55.7203254 79.336107,55.7446848 C79.3716404,55.7690442 79.4245358,55.7890959 79.4947934,55.8048398 L79.4475617,56.0156126 L77.8784754,55.6639988 L77.9257071,55.453226 Z" id="Shape"></path>
                    <path d="M87.1074024,52.4639433 C87.0050854,52.4453088 86.943893,52.4910853 86.9238251,52.6012727 C86.916658,52.6406254 86.92129,52.7044889 86.9377212,52.7928632 C86.9541524,52.8812375 86.9745122,52.9926892 86.9988006,53.1272183 L87.5152281,56.1852396 L87.5388397,56.1895399 L89.0540649,53.562521 C89.1134855,53.4595006 89.1698634,53.3620248 89.2231986,53.2700936 C89.2765338,53.1781623 89.3089351,53.1007145 89.3204025,53.0377503 C89.3404704,52.9275628 89.2875401,52.8610017 89.1616116,52.8380669 L89.200314,52.6255625 L90.8885435,52.9330319 L90.849841,53.1455363 C90.7081714,53.1197346 90.6287361,53.154057 90.611535,53.2485034 C90.601501,53.3035972 90.6064848,53.3878537 90.6264862,53.501273 C90.6464877,53.6146923 90.6675642,53.7222087 90.6897158,53.8238223 L91.2104435,56.858232 L92.8308659,54.1893852 C92.8902865,54.0863648 92.9412957,53.9960429 92.9838935,53.9184192 C93.0264913,53.8407956 93.0528072,53.7744369 93.0628412,53.7193432 C93.0829091,53.6091557 93.0299788,53.5425946 92.9040502,53.5196598 L92.9427527,53.3071554 L94.4420893,53.5802226 L94.4033869,53.792727 C94.2695878,53.7683588 94.1250115,53.8924624 93.9696578,54.1650376 L91.9561995,57.5185411 C91.8846081,57.6437396 91.8155252,57.7551647 91.7489508,57.8528163 C91.6823763,57.950468 91.6455056,58.0189702 91.6383385,58.0583228 C91.619704,58.1606398 91.6654804,58.2218322 91.7756679,58.2419001 L91.7369655,58.4544045 L90.0841534,58.1533856 L90.1228559,57.9408812 C90.1872536,57.944478 90.2291147,57.9378717 90.2484394,57.9210622 C90.267764,57.9042527 90.28316,57.8643658 90.2946274,57.8014016 C90.3003611,57.7699194 90.286445,57.645411 90.2528792,57.4278764 C90.2193135,57.2103417 90.1737793,56.935739 90.1162768,56.6040683 C90.0587743,56.2723975 89.9982424,55.90155 89.9346811,55.4915257 C89.8711198,55.0815013 89.8122105,54.6682584 89.7579531,54.251797 L89.7343415,54.2474967 C89.7056996,54.3154647 89.6391186,54.435477 89.5345983,54.6075337 C89.430078,54.7795905 89.308735,54.9770439 89.1705692,55.1998941 C89.0324034,55.4227443 88.8861845,55.6563252 88.7319126,55.9006368 C88.5776407,56.1449485 88.4348229,56.3710172 88.3034592,56.5788431 C88.1720955,56.7866689 88.0629233,56.9619442 87.9759425,57.1046689 C87.8889617,57.2473936 87.8433212,57.3305618 87.8390209,57.3541734 C87.8275536,57.4171377 87.8314755,57.4625757 87.8507869,57.4904876 C87.8700982,57.5183995 87.9151712,57.5388058 87.9860061,57.5517066 L87.9473036,57.764211 L86.4951902,57.4997444 L86.5338926,57.28724 C86.5653748,57.2929737 86.5936383,57.2940554 86.6186834,57.2904851 C86.6437284,57.2869148 86.6605512,57.2615181 86.6691517,57.2142949 C86.6777523,57.1670717 86.6750879,57.1035666 86.6611585,57.0237795 C86.6472292,56.9439925 86.6359775,56.8829892 86.6274036,56.8407697 L85.815135,52.4603391 C85.7908466,52.3258101 85.7218235,52.2359891 85.6080658,52.1908761 L85.6467682,51.9783717 L87.1461048,52.2514389 L87.1074024,52.4639433 Z" id="Path"></path>
                    <path d="M100.213793,59.5040321 C100.253478,59.5090476 100.294917,59.5001736 100.338113,59.4774101 C100.381308,59.4546466 100.406918,59.4115174 100.414943,59.3480225 L100.915992,55.3835596 L99.3683035,55.1879549 C99.3048086,55.1799301 99.243276,55.1882805 99.1837055,55.2130063 C99.1241351,55.237732 99.0898359,55.2858108 99.080808,55.3572425 L98.8665127,55.3301588 L99.0395477,53.96105 L99.253843,53.9881337 C99.2397995,54.0992498 99.2580491,54.1781609 99.3085916,54.2248669 C99.3591342,54.2715729 99.4161529,54.2989383 99.4796478,54.3069631 L103.717932,54.8426192 C103.781427,54.850644 103.843462,54.8383251 103.904035,54.8056625 C103.964609,54.7729999 104.001917,54.7011106 104.015961,54.5899945 L104.230256,54.6170783 L104.057221,55.9861871 L103.842926,55.9591033 C103.851953,55.8876716 103.830695,55.8325711 103.779149,55.7938019 C103.727603,55.7550328 103.670083,55.7316358 103.606588,55.723611 L102.0589,55.5280062 L101.557851,59.4924691 C101.542804,59.611522 101.606713,59.6800764 101.749576,59.6981322 L101.722493,59.9124275 L100.18671,59.7183274 L100.213793,59.5040321 Z" id="Path"></path>
                    <path d="M108.290675,56.1159514 C108.035827,56.0916942 107.782972,56.1098165 107.53211,56.1703185 C107.281249,56.2308204 107.052859,56.3296239 106.846941,56.4667291 C106.641023,56.6038343 106.469713,56.7783872 106.333009,56.9903878 C106.196306,57.2023884 106.11431,57.4517408 106.087021,57.738445 C106.059731,58.0251492 106.093213,58.2854931 106.187466,58.5194768 C106.281719,58.7534605 106.417023,58.9571978 106.593377,59.1306888 C106.769732,59.3041799 106.97538,59.4442965 107.210323,59.5510387 C107.445266,59.6577809 107.690161,59.7232806 107.945009,59.7475378 C108.199858,59.771795 108.452713,59.7536726 108.703574,59.6931707 C108.954436,59.6326688 109.182825,59.5338653 109.388743,59.3967601 C109.594661,59.2596549 109.765972,59.085102 109.902675,58.8731014 C110.039378,58.6611008 110.121374,58.4117484 110.148663,58.1250442 C110.175953,57.83834 110.142471,57.5779961 110.048218,57.3440124 C109.953965,57.1100287 109.818661,56.9062914 109.642307,56.7328003 C109.465952,56.5593093 109.260304,56.4191927 109.025361,56.3124505 C108.790418,56.2057083 108.545523,56.1402086 108.290675,56.1159514 Z M108.374817,55.2319468 C108.812837,55.2736389 109.219668,55.3686154 109.59531,55.5168763 C109.970952,55.6651372 110.291512,55.8644084 110.556991,56.1146899 C110.82247,56.3649714 111.022724,56.6673067 111.157751,57.0216957 C111.292779,57.3760847 111.338688,57.7802533 111.29548,58.2342016 C111.252272,58.6881499 111.130938,59.0763998 110.931477,59.3989512 C110.732016,59.7215027 110.478321,59.9806298 110.170392,60.1763326 C109.862463,60.3720353 109.510633,60.5012794 109.114903,60.5640646 C108.719174,60.6268498 108.302299,60.6373964 107.864278,60.5957043 C107.426258,60.5540123 107.018859,60.4650088 106.64208,60.3286939 C106.265301,60.192379 105.944172,59.9990808 105.678693,59.7487993 C105.413214,59.4985178 105.212961,59.1961825 105.077933,58.8417935 C104.942906,58.4874045 104.896996,58.0832358 104.940204,57.6292875 C104.983412,57.1753392 105.104747,56.7870894 105.304207,56.464538 C105.503668,56.1419865 105.757363,55.8828594 106.065292,55.6871566 C106.373221,55.4914538 106.725619,55.3562368 107.122486,55.2815056 C107.519353,55.2067743 107.936797,55.1902548 108.374817,55.2319468 Z" id="Shape"></path>
                    <path d="M118.579317,61.1838635 C118.659206,61.1880613 118.730264,61.1697647 118.792491,61.1289737 C118.854717,61.0881827 118.889398,60.9998809 118.896534,60.8640683 L119.106847,56.86159 C119.050924,56.8586515 118.984805,56.8591827 118.90849,56.8631838 C118.832175,56.8671848 118.757542,56.8772825 118.684592,56.8934769 C118.611642,56.9096712 118.544263,56.9341694 118.482457,56.9669715 C118.42065,56.9997735 118.376085,57.0475007 118.348759,57.1101532 L118.204958,57.1025971 L118.284297,55.5926801 L118.428099,55.6002362 C118.424321,55.672137 118.457648,55.7239572 118.528079,55.7556967 C118.598511,55.7874362 118.665682,55.804985 118.729594,55.8083433 C118.865407,55.8154797 118.981454,55.7795195 119.077735,55.7004627 C119.174016,55.621406 119.225305,55.5219603 119.231601,55.4021256 C119.237478,55.2902799 119.215292,55.2170148 119.165043,55.1823303 C119.114794,55.1476457 119.04615,55.1200057 118.95911,55.0994101 L118.966666,54.9556085 L120.907988,55.0576163 L120.900432,55.2014179 C120.803725,55.2123584 120.722366,55.236122 120.656355,55.2727086 C120.590344,55.3092952 120.55524,55.3675334 120.551042,55.4474232 L120.26265,60.9358516 C120.255513,61.0716642 120.282747,61.1632193 120.34435,61.210517 C120.405953,61.2578147 120.476699,61.2835624 120.556589,61.2877603 L120.549033,61.4315619 L118.571761,61.3276651 L118.579317,61.1838635 Z" id="Path"></path>
                    <path d="M124.536594,56.3066154 C124.448601,56.3055185 124.366407,56.3204952 124.290015,56.3515454 C124.213622,56.3825957 124.174578,56.4661155 124.172882,56.6021049 L124.028894,56.6003101 L124.049086,54.9804359 L124.193075,54.9822308 C124.191878,55.0782233 124.229127,55.1386923 124.304822,55.1636377 C124.380517,55.1885832 124.462361,55.2016043 124.550354,55.2027012 L129.589963,55.2655215 C129.829944,55.268513 129.950832,55.1980143 129.952627,55.0540255 L130.096616,55.0558203 L130.083154,56.1357364 L127.218984,60.6243851 C127.137395,60.751378 127.05998,60.8644219 126.986739,60.9635167 C126.913498,61.0626114 126.876479,61.1441564 126.875681,61.2081514 C126.874085,61.3361414 126.949282,61.4010838 127.10127,61.4029783 L127.099475,61.5469672 L124.939643,61.5200441 L124.941438,61.3760553 C125.005433,61.3768531 125.083851,61.3438279 125.176691,61.2769799 C125.269531,61.2101319 125.344498,61.1330603 125.40159,61.0457652 L128.472288,56.3556751 L124.536594,56.3066154 Z" id="Path"></path>
                    <path d="M139.2008,59.1425552 L138.152843,57.1649748 L137.37812,59.211915 L139.2008,59.1425552 Z M135.271448,61.2855236 C135.36677,61.2658846 135.442964,61.2169519 135.500031,61.1387253 C135.557097,61.0604987 135.600402,60.9888001 135.629945,60.9236295 L137.26835,56.9584593 C137.312056,56.8447151 137.346606,56.7533352 137.372,56.6843196 C137.397394,56.6153041 137.408874,56.5488194 137.406441,56.4848657 C137.404616,56.4369004 137.393482,56.4073024 137.37304,56.3960716 C137.352598,56.3848408 137.330082,56.3716875 137.305491,56.3566117 L137.297277,56.1407679 L139.107967,56.0718644 L139.11618,56.2877082 C139.092806,56.3046092 139.067281,56.3175893 139.039606,56.3266482 C139.01193,56.3357071 138.999157,56.3682164 139.001286,56.4241759 C139.003112,56.4721412 139.023304,56.5294147 139.061864,56.5959966 C139.100424,56.6625785 139.141362,56.7390771 139.18468,56.8254924 L141.282421,60.8286185 C141.32513,60.8990454 141.371075,60.9493346 141.420257,60.9794862 C141.469439,61.0096378 141.522314,61.0316431 141.578882,61.045502 L141.587096,61.2613458 L139.884328,61.3261425 L139.877484,61.1462727 C139.917455,61.1447516 139.958968,61.1311632 140.002024,61.1055074 C140.045079,61.0798516 140.06539,61.0350469 140.062956,60.9710932 C140.061131,60.9231279 140.051464,60.8794639 140.033954,60.8401013 C140.016445,60.8007386 139.994482,60.7495367 139.968066,60.6864957 L139.61829,60.0153109 L137.052147,60.1129622 L136.741031,60.7732704 C136.711488,60.8384409 136.687713,60.8973877 136.669704,60.9501106 C136.651696,61.0028335 136.643453,61.0491805 136.644974,61.0891515 C136.647407,61.1531053 136.668914,61.1923158 136.709493,61.2067832 C136.750073,61.2212506 136.806337,61.2271153 136.878285,61.2243774 L136.886498,61.4402212 L135.279661,61.5013674 L135.271448,61.2855236 Z" id="Shape"></path>
                    <path d="M143.045128,60.9498199 C143.188794,60.940014 143.256541,60.8752503 143.248369,60.7555289 L142.94275,56.2779468 C142.934579,56.1582253 142.85866,56.1032676 142.714994,56.1130735 L142.700285,55.8975749 L144.460191,55.7774521 L144.4749,55.9929507 C144.419574,56.0047455 144.393001,56.0266058 144.39518,56.0585315 C144.397904,56.0984387 144.493054,56.2001955 144.680631,56.3638019 L147.761505,59.2086076 L147.540054,55.9641564 C147.531882,55.844435 147.447982,55.790022 147.288354,55.8009175 L147.273645,55.5854189 L148.734246,55.4857251 L148.748955,55.7012237 C148.605289,55.7110297 148.537542,55.7757934 148.545714,55.8955148 L148.851333,60.3730969 C148.859504,60.4928183 148.935423,60.5477761 149.079089,60.5379701 L149.093798,60.7534687 L147.537419,60.8596998 L147.52271,60.6442012 C147.57858,60.6403878 147.605153,60.6185275 147.602429,60.5786204 C147.60025,60.5466946 147.558525,60.4934123 147.477254,60.4187734 C147.395982,60.3441344 147.303917,60.2582043 147.201058,60.1609831 L144.016235,57.2029931 L144.254029,60.6868872 C144.262201,60.8066087 144.350092,60.8607492 144.517702,60.849309 L144.532411,61.0648076 L143.059837,61.1653185 L143.045128,60.9498199 Z" id="Path"></path>
                    <path d="M154.06304,59.3397405 C154.309661,59.313617 154.542452,59.2708576 154.761413,59.2114624 C154.980375,59.1520672 155.166858,59.0518663 155.320861,58.9108595 C155.474865,58.7698528 155.589159,58.5767391 155.663743,58.3315183 C155.738327,58.0862976 155.754552,57.7647999 155.712417,57.3670253 C155.670282,56.9692506 155.587484,56.6622644 155.464024,56.4460666 C155.340563,56.2298687 155.189191,56.0729408 155.009907,55.9752827 C154.830622,55.8776247 154.628128,55.8266713 154.402425,55.8224225 C154.176722,55.8181738 153.94056,55.8291112 153.69394,55.8552347 L152.142619,56.0195603 L152.511719,59.5040662 L154.06304,59.3397405 Z M151.16245,60.3227487 C151.345427,60.3033667 151.430595,60.2340095 151.417954,60.1146771 L150.945202,55.6516457 C150.932562,55.5323133 150.834753,55.4823381 150.651777,55.5017201 L150.629024,55.2869218 L153.946465,54.9355178 C154.415839,54.8857988 154.825597,54.9188198 155.175738,55.034581 C155.52588,55.1503421 155.819213,55.3183783 156.055735,55.5386894 C156.292258,55.7590005 156.476885,56.0210101 156.609615,56.3247184 C156.742345,56.6284267 156.826407,56.9473462 156.8618,57.2814769 C156.897193,57.6156075 156.8838,57.9448501 156.82162,58.2692044 C156.759441,58.5935587 156.637781,58.8880121 156.45664,59.1525647 C156.2755,59.4171173 156.029848,59.6422461 155.719684,59.827951 C155.40952,60.0136558 155.019751,60.1313678 154.550376,60.1810868 L151.185203,60.537547 L151.16245,60.3227487 Z" id="Shape"></path>
                    <path d="M162.94938,57.2240847 C162.954431,57.2556835 162.957823,57.289573 162.959555,57.3257531 C162.961287,57.3619332 162.96531,57.3997725 162.971624,57.4392711 C162.990565,57.5577669 163.082975,57.6543921 163.248853,57.7291467 C163.414732,57.8039014 163.607709,57.8581214 163.827785,57.8918067 C164.047861,57.925492 164.265727,57.9453529 164.481383,57.9513892 C164.697039,57.9574255 164.864115,57.9509732 164.98261,57.9320323 C165.093206,57.9143542 165.228214,57.8846724 165.387633,57.8429871 C165.547051,57.8013018 165.701654,57.7421578 165.851441,57.6655551 C166.001227,57.5889524 166.124158,57.4963886 166.220233,57.3878637 C166.316307,57.2793387 166.352349,57.150029 166.328357,56.9999344 C166.300577,56.8261406 166.183602,56.7152135 165.977431,56.6671532 C165.771261,56.6190928 165.518559,56.5966989 165.219324,56.5999713 C164.92009,56.6032437 164.597156,56.6103044 164.250523,56.6211532 C163.90389,56.632002 163.576537,56.6114136 163.268464,56.559388 C162.96039,56.5073624 162.694745,56.4039964 162.471527,56.2492898 C162.24831,56.0945833 162.109553,55.8473861 162.055256,55.5076983 C161.974441,55.0021165 162.119385,54.5657687 162.490086,54.1986549 C162.860788,53.8315412 163.425325,53.5873734 164.183697,53.4661517 C164.554984,53.4068035 164.877683,53.3856027 165.151794,53.4025493 C165.425905,53.4194958 165.659489,53.4489964 165.852547,53.4910512 C166.045605,53.5331059 166.204143,53.5746024 166.328159,53.6155408 C166.452175,53.6564791 166.541832,53.6725287 166.59713,53.6636897 C166.660328,53.6535878 166.706148,53.6361368 166.73459,53.6113366 C166.763032,53.5865364 166.799058,53.5584986 166.842668,53.5272231 L166.993849,53.6367334 L166.579414,54.8452979 L166.354757,54.8082941 C166.339281,54.7621585 166.323805,54.716023 166.308329,54.6698874 C166.292853,54.6237518 166.249728,54.5820358 166.178954,54.5447393 C165.999493,54.4356987 165.736293,54.3602973 165.389352,54.3185352 C165.042411,54.2767731 164.663548,54.288723 164.252763,54.3543848 C164.094768,54.3796393 163.946252,54.4135057 163.807214,54.4559841 C163.668176,54.4984625 163.547147,54.5522399 163.444127,54.6173164 C163.341108,54.6823928 163.263997,54.7575056 163.212795,54.8426548 C163.161593,54.9278039 163.144831,55.0256765 163.16251,55.1362725 C163.19029,55.3100663 163.306949,55.4190184 163.512488,55.4631289 C163.718027,55.5072394 163.970414,55.5276584 164.269648,55.524386 C164.568883,55.5211135 164.891816,55.5140529 165.238449,55.5032041 C165.585082,55.4923553 165.912751,55.5149186 166.221456,55.5708941 C166.530161,55.6268695 166.797069,55.7381353 167.02218,55.9046914 C167.247291,56.0712475 167.387627,56.3283193 167.443187,56.6759068 C167.498747,57.0234944 167.459283,57.3214585 167.324796,57.5697992 C167.190308,57.8181399 167.006771,58.0257116 166.774183,58.1925143 C166.541596,58.359317 166.27639,58.4867751 165.978564,58.5748887 C165.680739,58.6630022 165.397531,58.7285254 165.12894,58.7714581 C164.86035,58.8143908 164.589631,58.8313337 164.316783,58.8222869 C164.043934,58.8132401 163.793522,58.7925054 163.565547,58.7600828 C163.337572,58.7276601 163.143801,58.6938208 162.984236,58.6585647 C162.824671,58.6233087 162.729089,58.6082061 162.697491,58.613257 C162.642193,58.6220961 162.598582,58.6533716 162.56666,58.7070835 L162.381825,58.615105 L162.714768,57.2008245 L162.94938,57.2240847 Z" id="Path"></path>
                    <path d="M171.002345,57.4717675 C171.041606,57.4641156 171.07819,57.4427223 171.112095,57.4075875 C171.145999,57.3724527 171.15683,57.3234763 171.144587,57.2606582 L170.380164,53.3384556 L168.848974,53.6368792 C168.786156,53.6491222 168.730325,53.6763045 168.68148,53.7184262 C168.632636,53.7605478 168.615101,53.8169438 168.628874,53.8876142 L168.416863,53.9289343 L168.152873,52.5744199 L168.364884,52.5330998 C168.386309,52.6430314 168.428331,52.7122715 168.490948,52.7408201 C168.553566,52.7693688 168.616284,52.7775216 168.679102,52.7652786 L172.872208,51.9480573 C172.935026,51.9358143 172.990092,51.9047058 173.037406,51.8547319 C173.084719,51.8047579 173.097664,51.7248052 173.076238,51.6148736 L173.288249,51.5735534 L173.552239,52.9280678 L173.340229,52.969388 C173.326455,52.8987177 173.289025,52.8530343 173.227937,52.8323379 C173.16685,52.8116415 173.104897,52.8074148 173.042079,52.8196579 L171.510889,53.1180814 L172.275312,57.0402839 C172.298268,57.1580678 172.380416,57.2031863 172.521757,57.1756395 L172.563077,57.3876505 L171.043665,57.6837784 L171.002345,57.4717675 Z" id="Path"></path>
                    <path d="M178.621225,53.7915473 L177.219682,52.0466353 L176.844199,54.2028292 L178.621225,53.7915473 Z M175.165607,56.6359852 C175.255526,56.5987508 175.321146,56.5363477 175.362464,56.448776 C175.403782,56.3612042 175.432813,56.2826346 175.449558,56.2130674 L176.312126,52.0103396 C176.333636,51.8904007 176.350364,51.7941501 176.36231,51.7215878 C176.374256,51.6490255 176.373013,51.5815684 176.358582,51.5192166 C176.347759,51.4724527 176.331252,51.4454802 176.309061,51.4382989 C176.286871,51.4311176 176.26228,51.4224388 176.235291,51.4122624 L176.186586,51.2018251 L177.951922,50.793249 L178.000626,51.0036863 C177.980852,51.0246859 177.958228,51.0422394 177.932752,51.0563469 C177.907277,51.0704544 177.900853,51.1047871 177.913481,51.1593449 C177.924304,51.2061088 177.954918,51.2585564 178.005324,51.3166878 C178.05573,51.3748192 178.110339,51.4422421 178.169151,51.5189565 L180.98306,55.0555442 C181.038265,55.1166707 181.092857,55.1574102 181.146836,55.1777629 C181.200815,55.1981156 181.256888,55.2097724 181.315054,55.2127333 L181.363758,55.4231707 L179.703641,55.8073945 L179.663054,55.6320301 C179.702024,55.6230107 179.740236,55.6018495 179.777692,55.5685463 C179.815147,55.5352431 179.826659,55.4874156 179.812228,55.4250638 C179.801405,55.3782999 179.78369,55.3372369 179.759082,55.3018748 C179.734475,55.2665126 179.703265,55.2203614 179.665452,55.1634212 L179.195565,54.570093 L176.693699,55.1491346 L176.512466,55.8562091 C176.495721,55.9257764 176.483468,55.9881453 176.475708,56.0433158 C176.467949,56.0984863 176.468578,56.1455565 176.477598,56.1845264 C176.492029,56.2468782 176.520533,56.2813384 176.563111,56.287907 C176.605688,56.2944756 176.66205,56.2896425 176.732196,56.2734077 L176.7809,56.4838451 L175.214311,56.8464225 L175.165607,56.6359852 Z" id="Shape"></path>
                    <path d="M182.719824,54.8374246 C182.858828,54.7998238 182.912664,54.7231049 182.881329,54.607268 L181.709437,50.2749694 C181.678103,50.1591326 181.592934,50.1200146 181.453929,50.1576154 L181.397528,49.949109 L183.10033,49.4884988 L183.156731,49.6970051 C183.104763,49.7193501 183.082957,49.7459675 183.091312,49.7768574 C183.101757,49.8154697 183.214905,49.8967445 183.430755,50.020682 L187.006724,52.2109215 L186.157572,49.0717426 C186.126238,48.9559057 186.033347,48.9188767 185.878897,48.9606554 L185.822496,48.752149 L187.235706,48.3698738 L187.292107,48.5783802 C187.153103,48.615981 187.099268,48.6926999 187.130602,48.8085367 L188.302495,53.1408353 C188.333829,53.2566722 188.418998,53.2957902 188.558002,53.2581894 L188.614403,53.4666957 L187.108524,53.8740381 L187.052123,53.6655318 C187.10618,53.6509092 187.127986,53.6242918 187.117542,53.5856795 C187.109186,53.5547897 187.057882,53.5106549 186.963629,53.4532753 C186.869376,53.3958956 186.762337,53.3295434 186.642511,53.2542186 L182.942539,50.9732095 L183.854359,54.3440622 C183.885693,54.459899 183.982446,54.4958836 184.144618,54.452016 L184.201019,54.6605223 L182.776225,55.0459309 L182.719824,54.8374246 Z" id="Path"></path>
                    <path d="M193.197946,51.0680433 C193.43403,50.9920948 193.653179,50.902686 193.855392,50.7998171 C194.057604,50.6969481 194.219688,50.5607681 194.341641,50.3912769 C194.463595,50.2217857 194.536033,50.0093975 194.558955,49.7541122 C194.581877,49.4988269 194.532089,49.1807936 194.409591,48.8000124 C194.287094,48.4192311 194.143335,48.1356301 193.978316,47.9492092 C193.813297,47.7627883 193.633062,47.640089 193.437609,47.5811115 C193.242157,47.5221339 193.033525,47.5136171 192.811712,47.555561 C192.5899,47.597505 192.360952,47.6564512 192.124867,47.7323997 L190.63982,48.2101403 L191.712899,51.5457838 L193.197946,51.0680433 Z M190.559306,52.6228127 C190.734466,52.5664638 190.803671,52.4811721 190.766921,52.3669378 L189.392498,48.0945724 C189.355749,47.980338 189.249795,47.9513953 189.074635,48.0077442 L189.008487,47.8021223 L192.184202,46.7804925 C192.633524,46.6359454 193.041388,46.5845712 193.407793,46.6263701 C193.774198,46.668169 194.09567,46.7727449 194.372207,46.9400977 C194.648745,47.1074506 194.882998,47.3262234 195.074966,47.5964161 C195.266935,47.8666089 195.414368,48.1616334 195.517266,48.4814896 C195.620164,48.8013459 195.674306,49.1263823 195.679691,49.4565989 C195.685077,49.7868155 195.626128,50.0999114 195.502845,50.3958867 C195.379563,50.691862 195.185076,50.9624221 194.919384,51.2075669 C194.653693,51.4527118 194.296186,51.6475578 193.846864,51.792105 L190.625455,52.8284345 L190.559306,52.6228127 Z" id="Shape"></path>
                    <path d="M202.580708,43.8115681 C202.343471,43.9077678 202.127576,44.0406345 201.933025,44.2101683 C201.738473,44.3797022 201.581544,44.5728273 201.462238,44.7895436 C201.342931,45.0062599 201.271616,45.2402047 201.248293,45.491378 C201.224969,45.7425513 201.26742,46.001584 201.375644,46.2684762 C201.483869,46.5353684 201.633818,46.7508106 201.825491,46.914803 C202.017163,47.0787953 202.231275,47.1969999 202.467825,47.2694168 C202.704374,47.3418336 202.951491,47.3711187 203.209173,47.357272 C203.466856,47.3434252 203.714316,47.288402 203.951553,47.1922024 C204.18879,47.0960027 204.404685,46.963136 204.599236,46.7936021 C204.793788,46.6240683 204.950717,46.4309432 205.070023,46.2142269 C205.18933,45.9975105 205.260645,45.7635657 205.283968,45.5123925 C205.307292,45.2612192 205.264841,45.0021865 205.156617,44.7352943 C205.048392,44.4684021 204.898443,44.2529599 204.70677,44.0889675 C204.515098,43.9249752 204.300986,43.8067706 204.064436,43.7343537 C203.827887,43.6619369 203.58077,43.6326518 203.323088,43.6464985 C203.065405,43.6603453 202.817946,43.7153685 202.580708,43.8115681 Z M202.247015,42.9886506 C202.654767,42.8233074 203.059469,42.7196302 203.461119,42.6776191 C203.862769,42.6356079 204.239128,42.6642814 204.590195,42.7636396 C204.941262,42.8629978 205.258521,43.0386519 205.541974,43.2906019 C205.825426,43.5425519 206.05283,43.8798166 206.224185,44.3023959 C206.395541,44.7249752 206.467258,45.1253708 206.439336,45.5035829 C206.411414,45.881795 206.306094,46.2288047 206.123377,46.5446121 C205.940659,46.8604195 205.688308,47.13756 205.366323,47.3760335 C205.044338,47.6145069 204.679469,47.8164153 204.271717,47.9817584 C203.863966,48.1471015 203.461519,48.256339 203.064378,48.3094707 C202.667237,48.3626024 202.293133,48.3394891 201.942066,48.2401309 C201.590999,48.1407727 201.27374,47.9651186 200.990287,47.7131686 C200.706835,47.4612185 200.479431,47.1239539 200.308076,46.7013746 C200.13672,46.2787953 200.065003,45.8783996 200.092925,45.5001876 C200.120847,45.1219755 200.226167,44.7749658 200.408884,44.4591584 C200.591602,44.143351 200.841698,43.8606503 201.159174,43.6110563 C201.47665,43.3614623 201.839264,43.1539937 202.247015,42.9886506 Z" id="Shape"></path>
                    <path d="M208.734274,45.8095257 C208.864717,45.7485287 208.904523,45.663679 208.853692,45.5549765 L206.952618,41.4895044 C206.901788,41.3808019 206.811151,41.3569492 206.680708,41.4179462 L206.589212,41.2222818 L208.187138,40.4750684 L208.278634,40.6707328 C208.231295,40.7017007 208.214403,40.7316783 208.227958,40.7606656 C208.244901,40.7968998 208.370364,40.8574561 208.604346,40.9423344 L212.504309,42.4834368 L211.126793,39.5376 C211.075962,39.4288976 210.978078,39.4084336 210.833142,39.476208 L210.741646,39.2805436 L212.067816,38.6604073 L212.159312,38.8560717 C212.028869,38.9170687 211.989063,39.0019185 212.039894,39.1106209 L213.940967,43.1760931 C213.991798,43.2847955 214.082435,43.3086482 214.212878,43.2476512 L214.304373,43.4433157 L212.891241,44.1041166 L212.799746,43.9084522 C212.850474,43.8847311 212.867366,43.8547535 212.850422,43.8185194 C212.836867,43.789532 212.778724,43.7549007 212.675992,43.7146252 C212.57326,43.6743498 212.456386,43.62744 212.32537,43.5738959 L208.287615,41.9647557 L209.766793,45.1279974 C209.817623,45.2366999 209.919131,45.2554695 210.071314,45.1843063 L210.16281,45.3799708 L208.825769,46.0051901 L208.734274,45.8095257 Z" id="Path"></path>
                    <path d="M221.436202,36.9001067 L219.570287,35.6642261 L219.868498,37.8324581 L221.436202,36.9001067 Z M219.009604,40.6609244 C219.083937,40.5981015 219.127463,40.5186948 219.140185,40.4227044 C219.152906,40.3267139 219.156661,40.2430365 219.151451,40.1716723 L218.694699,35.9057232 C218.678705,35.7849251 218.665361,35.6881473 218.654668,35.6153898 C218.643975,35.5426322 218.622271,35.4787499 218.589557,35.4237427 C218.565022,35.3824873 218.541092,35.3618143 218.517768,35.3617236 C218.494445,35.3616329 218.46838,35.3608456 218.439574,35.3593616 L218.329164,35.1737124 L219.886554,34.2474948 L219.996964,34.433144 C219.984515,34.4591636 219.968302,34.4827675 219.948326,34.5039558 C219.928349,34.5251442 219.932674,34.5598039 219.961298,34.6079352 C219.985834,34.6491906 220.030952,34.68984 220.096652,34.7298835 C220.162352,34.7699269 220.234883,34.8175429 220.314244,34.8727314 L224.07061,37.3857481 C224.141793,37.4271849 224.206191,37.4493873 224.263803,37.4523553 C224.321415,37.4553233 224.378377,37.4493708 224.434686,37.4344978 L224.545096,37.620147 L223.080531,38.4911595 L222.988522,38.3364518 C223.022902,38.3160055 223.052866,38.2842231 223.078416,38.2411045 C223.103965,38.1979858 223.100383,38.1489229 223.067669,38.0939158 C223.043134,38.0526604 223.013767,38.0189322 222.979569,37.9927313 C222.945371,37.9665303 222.901601,37.9320601 222.848259,37.8893207 L222.220153,37.4670467 L220.012991,38.7796993 L220.055433,39.5083959 C220.060644,39.5797601 220.067944,39.6429004 220.077335,39.6978169 C220.086725,39.7527334 220.101643,39.7973814 220.12209,39.8317608 C220.154804,39.886768 220.19244,39.9109243 220.234998,39.9042298 C220.277556,39.8975353 220.329776,39.8757864 220.391659,39.838983 L220.502069,40.0246322 L219.120014,40.8465736 L219.009604,40.6609244 Z" id="Shape"></path>
                    <path d="M224.178091,31.4950801 L224.299403,31.6737958 C224.147164,31.777136 224.104742,31.8784494 224.172138,31.9777359 L226.416419,35.2839753 L229.097154,33.4642882 C229.176583,33.4103715 229.230418,33.3472384 229.258659,33.274889 C229.2869,33.2025395 229.278555,33.1332693 229.233625,33.0670783 L229.41234,32.9457658 L230.119996,33.9882737 L229.941281,34.1095862 C229.905336,34.0566334 229.858641,34.0448197 229.801195,34.0741451 C229.743749,34.1034704 229.675312,34.1450914 229.595883,34.1990081 L225.703853,36.8409242 L225.582541,36.6622086 C225.754637,36.5453892 225.806988,36.4373362 225.739592,36.3380498 L223.218988,32.6247357 C223.151592,32.5254493 223.031846,32.5342158 222.859749,32.6510352 L222.738437,32.4723195 L224.178091,31.4950801 Z" id="Path"></path>
                    <path d="M229.503983,27.5901418 L229.637953,27.7595756 C229.493621,27.8736989 229.458669,27.9778255 229.533097,28.0719554 L232.011557,31.2064814 L234.553064,29.1969195 C234.628368,29.1373769 234.677476,29.0705009 234.700389,28.9962916 C234.723301,28.9220822 234.709948,28.8536009 234.660329,28.7908476 L234.829763,28.6568769 L235.611259,29.6452409 L235.441825,29.7792117 C235.40213,29.7290091 235.3547,29.7206176 235.299536,29.7540374 C235.244371,29.7874571 235.179137,29.8339382 235.103833,29.8934808 L231.413941,32.811067 L231.27997,32.6416332 C231.443128,32.5126243 231.487493,32.4010549 231.413065,32.306925 L228.62945,28.7864663 C228.555022,28.6923364 228.436228,28.7097759 228.27307,28.8387848 L228.139099,28.669351 L229.503983,27.5901418 Z" id="Path"></path>
                    <path d="M240.903892,24.2382835 C240.960351,24.1816055 240.994166,24.116486 241.005337,24.0429251 C241.016508,23.9693642 240.973918,23.8845938 240.877565,23.7886138 L238.037995,20.9600266 C237.998474,20.9997012 237.954729,21.0492835 237.906761,21.1087736 C237.858793,21.1682636 237.816487,21.2305711 237.779844,21.295696 C237.7432,21.360821 237.716459,21.4273409 237.69962,21.495256 C237.682781,21.563171 237.688564,21.6282137 237.716969,21.6903842 L237.615343,21.7924047 L236.544128,20.7253328 L236.645754,20.6233124 C236.696764,20.6741253 236.757594,20.6839069 236.828244,20.6526573 C236.898895,20.6214076 236.956803,20.5831116 237.00197,20.5377692 C237.09795,20.4414165 237.148648,20.3310094 237.154064,20.2065479 C237.15948,20.0820863 237.119679,19.9775115 237.034662,19.8928232 C236.955313,19.8137809 236.885953,19.7813883 236.826584,19.7956455 C236.767214,19.8099027 236.700809,19.8425583 236.627369,19.8936124 L236.525349,19.7919865 L237.897298,18.41471 L237.999319,18.5163359 C237.942904,18.5956413 237.906282,18.6720799 237.889454,18.7456518 C237.872626,18.8192236 237.892551,18.884239 237.949229,18.9406978 L241.843011,22.8194192 C241.939363,22.9153992 242.02571,22.9562441 242.10205,22.9419541 C242.17839,22.927664 242.244789,22.8921799 242.301248,22.8355019 L242.403268,22.9371278 L241.005913,24.3399094 L240.903892,24.2382835 Z" id="Path"></path>
                    <path d="M240.705161,16.7438044 C240.652436,16.8142607 240.616116,16.8894996 240.596202,16.9695209 C240.576287,17.0495422 240.620774,17.1302947 240.729661,17.2117785 L240.643384,17.3270707 L239.346346,16.356456 L239.432623,16.2411638 C239.509484,16.2986817 239.58029,16.304206 239.645041,16.2577368 C239.709791,16.2112676 239.768529,16.1528048 239.821253,16.0823484 L242.840943,12.0471196 C242.984738,11.8549659 242.99899,11.7157506 242.883697,11.6294737 L242.969974,11.5141815 L243.834666,12.1612579 L245.774365,17.1199882 C245.828916,17.26073 245.874654,17.3898812 245.911579,17.5074418 C245.948505,17.6250024 245.992588,17.7029554 246.043829,17.7413007 C246.146311,17.8179912 246.243087,17.7954878 246.334157,17.6737904 L246.44945,17.7600673 L245.155297,19.489451 L245.040005,19.4031742 C245.07835,19.3519332 245.097861,19.2691123 245.098539,19.1547115 C245.099217,19.0403107 245.081104,18.93433 245.044199,18.8367694 L243.063395,13.5924828 L240.705161,16.7438044 Z" id="Path"></path>
                    <path d="M244.441231,9.40347831 C244.406108,9.52260178 244.396258,9.60794213 244.41168,9.65949936 C244.427103,9.7110566 244.473721,9.76523016 244.551534,9.82202005 L246.600463,11.1409527 C246.650951,11.1810897 246.696183,11.187576 246.736159,11.1604114 C246.776135,11.1332469 246.812776,11.0923391 246.846082,11.0376881 L246.969047,11.1126259 L246.319586,12.1783204 L246.196621,12.1033826 C246.229927,12.0487316 246.249489,11.9974159 246.255309,11.9494353 C246.261128,11.9014547 246.23463,11.8642272 246.175816,11.8377529 L244.051949,10.6417851 C243.965809,10.5986579 243.896293,10.5820569 243.843402,10.5919821 C243.790511,10.6019072 243.719178,10.6497787 243.629405,10.7355965 L243.50644,10.6606587 L244.318266,9.32854054 L244.441231,9.40347831 Z" id="Path"></path>
                    <path d="M249.211838,9.91991374 C249.24062,9.93389943 249.270327,9.9505581 249.300959,9.96988974 C249.33159,9.98922139 249.364894,10.0076283 249.400872,10.0251104 C249.508804,10.0775567 249.640958,10.0572754 249.797334,9.96426643 C249.953709,9.87125746 250.108806,9.74427257 250.262622,9.58331176 C250.416439,9.42235096 250.557664,9.25527141 250.686297,9.08207312 C250.814929,8.90887483 250.905469,8.76830954 250.957915,8.66037724 C251.006865,8.55964042 251.059983,8.43202185 251.117268,8.27752153 C251.174554,8.1230212 251.214776,7.9624528 251.237934,7.79581632 C251.261091,7.62917984 251.255771,7.47538876 251.221973,7.33444309 C251.188175,7.19349742 251.102919,7.08980857 250.966204,7.02337654 C250.807904,6.94645524 250.649945,6.9786572 250.492328,7.1199824 C250.33471,7.2613076 250.17143,7.45547155 250.002488,7.70247423 C249.833545,7.94947692 249.654113,8.21806607 249.464191,8.50824168 C249.27427,8.79841728 249.069654,9.05476895 248.850342,9.27729668 C248.631031,9.49982441 248.393997,9.65815003 248.139241,9.75227353 C247.884485,9.84639702 247.602404,9.81828569 247.292998,9.66793952 C246.832487,9.44416849 246.558172,9.07517054 246.470054,8.56094569 C246.381936,8.04672084 246.505705,7.44422505 246.841362,6.75345831 C247.005693,6.41527044 247.173408,6.13876368 247.344504,5.92393804 C247.5156,5.7091124 247.673737,5.53468538 247.818914,5.40065699 C247.964091,5.2666286 248.089012,5.1605587 248.193676,5.08244731 C248.29834,5.00433592 248.36291,4.94009603 248.387385,4.88972762 C248.415356,4.83216372 248.42734,4.78462028 248.423337,4.74709727 C248.419334,4.70957427 248.417029,4.66398167 248.416421,4.61031949 L248.592837,4.54928492 L249.345169,5.581942 L249.186007,5.74475234 C249.139337,5.73096929 249.092668,5.71718624 249.045999,5.7034032 C248.999329,5.68962015 248.940422,5.7010213 248.869278,5.73760666 C248.677026,5.82207722 248.464303,5.99443918 248.231107,6.25469256 C247.997912,6.51494593 247.790407,6.83215528 247.608593,7.20632059 C247.538664,7.35023032 247.481227,7.4913151 247.43628,7.62957492 C247.391333,7.76783474 247.365971,7.89782232 247.360194,8.01953767 C247.354417,8.14125302 247.371721,8.24750065 247.412107,8.33828056 C247.452493,8.42906046 247.523054,8.49892538 247.623791,8.54787529 C247.782092,8.62479658 247.938252,8.59172052 248.092271,8.44864711 C248.246291,8.3055737 248.407772,8.11053565 248.576715,7.86353296 C248.745658,7.61653027 248.92509,7.34794113 249.115011,7.05776552 C249.304932,6.76758991 249.511347,6.51211235 249.734256,6.29133283 C249.957165,6.07055331 250.201395,5.91572412 250.466944,5.82684525 C250.732494,5.73796639 251.023569,5.77044825 251.340171,5.92429084 C251.656772,6.07813343 251.878223,6.28135612 252.004523,6.53395891 C252.130824,6.78656171 252.195595,7.05596227 252.198838,7.34216061 C252.20208,7.62835894 252.154384,7.91871229 252.055749,8.21322064 C251.957114,8.507729 251.848357,8.77730645 251.729479,9.021953 C251.610601,9.26659955 251.469211,9.49808385 251.30531,9.71640592 C251.141409,9.93472798 250.980802,10.1279672 250.823489,10.2961235 C250.666176,10.4642797 250.52732,10.6036034 250.406922,10.7140945 C250.286524,10.8245856 250.219332,10.8942221 250.205346,10.9230041 C250.180871,10.9733725 250.181479,11.0270347 250.20717,11.0839906 L250.025813,11.1826495 L249.058224,10.0987619 L249.211838,9.91991374 Z" id="Path"></path>
                </g>
                <g id="BLACKJACK-PAYS-3-TO" transform="translate(151.960891, 107.947663) scale(-1, -1) rotate(177.000000) translate(-151.960891, -107.947663) translate(40.437370, 80.156528)" fill="#B39D56" fill-rule="nonzero">
                    <path d="M0,7.76619192 L3.07325242,11.3696369 C5.51316565,14.23048 7.21776779,14.7744171 8.97079507,13.2793213 C10.4438249,12.0230256 10.3941306,10.3620781 8.83030348,8.33120915 L8.91552008,8.25853088 C10.7110139,9.944618 11.9755996,10.1698806 13.2660224,9.06932394 C14.6903571,7.85455863 14.4115163,6.22081208 12.3557596,3.81039957 L9.10600281,0 L8.78948399,0.269947847 C9.60791895,1.2542345 9.57783324,1.49018121 8.45784359,2.44538129 L2.51702893,7.51209473 C1.39703928,8.4672948 1.18185779,8.46155669 0.316518814,7.49624407 L0,7.76619192 Z M7.32591871,6.12347129 L11.0267541,2.967158 L11.826215,3.90454064 C12.9683021,5.2436587 12.953212,6.43413939 11.7601795,7.45163513 C10.5062781,8.52104391 9.2778493,8.41214579 8.19805791,7.14607053 L7.32591871,6.12347129 Z M2.6268317,10.1311586 L6.93635709,6.45571479 L7.77734846,7.44179264 C8.28609633,8.03830886 8.61081053,8.66560838 8.67380377,9.15863156 C8.76900695,9.96064425 8.36259554,10.79092 7.54695091,11.4865548 C6.09826864,12.7220853 4.71373621,12.5780925 3.41591002,11.0563674 L2.6268317,10.1311586 Z" id="Shape"></path>
                    <path d="M8.75019966,17.5368414 L15.4231253,23.3227111 L18.1643511,20.7229601 L17.7831755,20.3077479 C16.9237529,20.9814249 16.4432766,21.2424814 15.8209506,21.4228987 C14.8407141,21.6741683 13.9017094,21.3894119 12.8862642,20.5089534 L11.77411,19.5446418 L17.9478006,12.4244368 C18.9016306,11.3243712 19.1031561,11.287338 20.1379576,12.1210489 L20.4104805,11.8067444 L16.6388269,8.53647026 L16.366304,8.85077473 C17.3382156,9.7570174 17.3301082,9.96175692 16.3762783,11.0618226 L11.2612341,16.9610756 C10.3074041,18.0611413 10.0937899,18.0876928 9.02272251,17.222537 L8.75019966,17.5368414 Z" id="Path"></path>
                    <path d="M22.5172291,23.38743 L26.0147609,25.7272026 L25.5414955,27.5281146 C25.4387711,27.9406479 25.2828522,28.3175952 25.1538072,28.5392693 C25.1449108,28.5525679 25.1360143,28.5658665 25.1271178,28.5791651 C24.8335342,29.0180189 24.4120122,28.9862818 23.5564075,28.4524011 L23.3250992,28.7981647 L27.6604427,31.6984152 L27.891751,31.3526516 C27.4884831,31.0058736 27.3865886,30.8992081 27.2847864,30.7348539 C27.0856763,30.3706518 27.1176901,29.7760636 27.3634037,28.7469315 L29.9178474,18.6554586 L28.8625793,18.1035084 L21.0123663,23.7089696 C19.3641454,24.8778631 18.5384333,25.0762354 17.6651279,24.5112632 L17.4338195,24.8570268 L20.8515596,27.1434206 L21.082868,26.797657 C20.2229533,26.1838925 20.0107291,25.6954165 20.3576916,25.1767711 C20.5623105,24.8709033 20.9311913,24.520922 21.4687363,24.1490223 L22.5172291,23.38743 Z M26.1888415,25.0929031 L23.050372,22.9933353 L27.5641552,19.7566602 L26.1888415,25.0929031 Z" id="Shape"></path>
                    <path d="M41.897535,30.3490524 L43.7368911,26.9055098 C43.2023571,26.8195245 43.0884903,26.7949818 42.8767971,26.6819066 C42.6651039,26.5688315 42.4967132,26.4426072 42.3292862,26.2806189 C41.21936,25.2342692 40.93903,25.0119741 40.2051603,24.6199802 C37.1850041,23.0067744 34.061445,24.168092 32.244704,27.5692959 C31.3325643,29.2769543 31.0792551,30.9737355 31.5272873,32.4102546 C31.9358722,33.7168664 32.9356148,34.867617 34.2904512,35.5912981 C36.3932702,36.7145114 38.2823652,36.4719422 40.1149057,34.8749839 L39.8262457,34.4305659 C39.3356337,34.8396672 39.0004356,35.0596905 38.5871347,35.2561348 C37.3980729,35.818206 36.1171397,35.80516 35.0586738,35.2397842 C32.9840805,34.1316475 32.7466746,31.519732 34.4201871,28.3866728 C35.2418667,26.848369 36.1658474,25.7637771 37.2062421,25.1404354 C38.0865761,24.6129924 39.1538884,24.5844913 40.0571127,25.0669454 C40.9744498,25.5569378 41.5931446,26.5041531 41.7270104,27.6458851 C41.8206372,28.4214739 41.7242221,29.077413 41.3894713,30.0776719 L41.897535,30.3490524 Z" id="Path"></path>
                    <path d="M46.417196,35.8266615 L47.937634,35.0915668 L48.6902691,40.2255543 C48.8827604,41.4675153 48.8827604,41.4675153 48.8898335,41.9905966 L51.9906018,43.284751 L52.1446678,42.9156119 C51.466734,42.5459774 51.139699,41.9587056 50.9238393,40.6896537 L49.8076888,34.2249879 L51.9350447,33.2404084 C53.9848505,32.2754751 54.9117302,32.0901808 55.9970611,32.4391349 L56.1572897,32.0552302 L52.0819942,30.3543416 L51.9217655,30.7382462 C52.709221,31.1362537 52.9219776,31.415765 52.7494237,31.8292008 C52.6015203,32.1835744 52.1570236,32.5008482 51.2053695,32.9532046 L46.725328,35.0883833 L48.4015661,31.07215 C48.9623663,29.7284837 49.1421172,29.6301292 50.3123191,30.0665185 L50.4725477,29.6826138 L46.0133476,27.8214965 L45.8531189,28.2054011 C46.9863449,28.7303838 47.0428431,28.9273405 46.4820428,30.2710068 L43.4746744,37.4766018 C42.9077115,38.8350337 42.7341233,38.9186226 41.5048591,38.4575828 L41.3446305,38.8414875 L45.9219552,40.7519059 L46.0821838,40.3680012 C44.8898956,39.8183681 44.8272348,39.6361769 45.3941977,38.277745 L46.417196,35.8266615 Z" id="Path"></path>
                    <path d="M60.129819,33.4404983 L59.9970164,33.834731 C61.2856936,34.3194897 61.3710808,34.5170878 60.9062716,35.8969025 L58.6077643,42.7201615 C58.0101524,44.4942089 57.5935615,45.0292117 56.9718868,44.8197921 C56.5170028,44.6665583 56.3717673,44.1955481 56.5661847,43.5181694 C56.7146319,42.9772559 56.7146319,42.9772559 56.684788,42.8152517 C56.6450497,42.5823808 56.3978189,42.3640303 56.0490746,42.246551 C55.3212603,42.0013769 54.6729225,42.2219447 54.4890419,42.7678054 C54.1927899,43.6472477 55.0447662,44.626468 56.561046,45.1372474 C57.607279,45.4896852 58.5636594,45.4573029 59.3036163,45.0649971 C59.9270574,44.7178586 60.3843501,44.1121496 60.7010333,43.1720562 C60.7470035,43.035591 60.8031892,42.8688002 60.8595355,42.6514132 C61.0333611,42.0852819 61.1508404,41.7365376 61.2581041,41.4181188 L62.8925981,36.5660235 C63.3574074,35.1862089 63.5297877,35.0754432 64.8036233,35.4539017 L64.9364259,35.059669 L60.129819,33.4404983 Z" id="Path"></path>
                    <path d="M66.9615881,43.8320019 L71.0252083,44.9248217 L71.1552744,46.7823326 C71.1904534,47.2060052 71.1638283,47.6130569 71.112796,47.8644286 C71.1086408,47.8798796 71.1044856,47.8953306 71.1003304,47.9107816 C70.9632085,48.4206655 70.5538172,48.5259591 69.572092,48.295083 L69.4640566,48.6968097 L74.5010915,50.0514077 L74.6091269,49.649681 C74.1158639,49.450755 73.985115,49.3824561 73.8359298,49.2594937 C73.5304186,48.9785115 73.3698158,48.4051297 73.2720651,47.3515962 L72.450884,36.9742811 L71.2742663,36.7904039 L65.6396599,44.6197238 C64.4540491,46.2559606 63.735759,46.7089632 62.727287,46.4543256 L62.6192516,46.8560523 L66.5901656,47.9239409 L66.698201,47.5222142 C65.6867436,47.2170684 65.3289086,46.8226041 65.4909617,46.220014 C65.5865315,45.8646404 65.8235002,45.414745 66.2131635,44.8899341 L66.9615881,43.8320019 Z M70.9863981,44.268214 L67.3399556,43.2875847 L70.5754237,38.7729363 L70.9863981,44.268214 Z" id="Shape"></path>
                    <path d="M87.7748734,44.6425244 L88.5442022,40.8150776 C88.0075591,40.8867308 87.8914493,40.8960324 87.6561555,40.8487376 C87.4208616,40.8014428 87.2232462,40.7290815 87.0162506,40.6221946 C85.6519395,39.9399634 85.3194538,39.8078527 84.5037684,39.6438974 C81.1469093,38.9691582 78.4903399,40.9811022 77.7304701,44.7614903 C77.3489587,46.6595274 77.5952123,48.357347 78.4380944,49.6038901 C79.2057769,50.7373977 80.4946523,51.5513463 82.000533,51.854033 C84.3377854,52.323828 86.0769084,51.547316 87.3716905,49.4901287 L86.9672368,49.147712 C86.6152824,49.6808087 86.3576816,49.9880705 86.0184965,50.2952537 C85.0417728,51.1760503 83.811388,51.5325798 82.6349187,51.2961058 C80.3290388,50.8326167 79.3492348,48.3998307 80.0491979,44.9174815 C80.3928734,43.2076794 80.9652222,41.9028818 81.7819304,41.0062415 C82.4729911,40.2475459 83.4868426,39.9127726 84.4907631,40.1145638 C85.5103698,40.3195079 86.3757163,41.0483258 86.8328266,42.1030875 C87.1459223,42.8188214 87.2425635,43.4747273 87.2101682,44.5290169 L87.7748734,44.6425244 Z" id="Path"></path>
                    <path d="M93.7849039,48.749768 L95.0592288,47.6415297 L97.1324214,52.3982261 C97.6440032,53.5461826 97.6440032,53.5461826 97.7880609,54.0490855 L101.119741,54.4844098 L101.171565,54.0877812 C100.420403,53.9089528 99.9507509,53.4280509 99.4095118,52.2600833 L96.6364287,46.3146897 L98.4309589,44.8064784 C100.15581,43.3375707 101.00161,42.9155966 102.140473,42.9675868 L102.19437,42.5550931 L97.8155904,41.9829527 L97.7616932,42.3954464 C98.6259842,42.5729205 98.9046192,42.7868235 98.846576,43.2310476 C98.7968247,43.611811 98.4511359,44.0345867 97.6514939,44.7207679 L93.8885525,47.9565108 L94.452401,43.6411917 C94.6410415,42.1974637 94.7886924,42.055396 96.0323925,42.1694924 L96.0862898,41.7569987 L91.2950164,41.130961 L91.2411191,41.5434548 C92.4723814,41.752742 92.5785728,41.9279773 92.3899323,43.3717053 L91.3783218,51.1138955 C91.1876083,52.5734887 91.0420304,52.6996912 89.7348697,52.5773029 L89.6809724,52.9897966 L94.599167,53.6324181 L94.6530643,53.2199244 C93.3583414,53.0023452 93.250077,52.8429751 93.4407905,51.3833819 L93.7849039,48.749768 Z" id="Path"></path>
                    <path d="M114.515255,50.3228647 L115.298706,50.3522115 C116.641764,50.4025204 117.814935,50.2863533 118.528024,50.056885 C119.922225,49.5967505 120.632683,48.5826338 120.693773,46.9517775 C120.780615,44.6334035 119.395345,43.5728065 116.133632,43.4506278 L111.321008,43.2703544 L111.305436,43.6860628 C112.550166,43.7967333 112.672686,43.9454237 112.618184,45.4004033 L112.325315,53.21892 C112.270814,54.6738996 112.137513,54.8130074 110.824636,54.8118627 L110.809064,55.2275712 L115.861521,55.4168283 L115.877092,55.0011199 C114.487865,54.9010479 114.349356,54.7517586 114.403857,53.296779 L114.515255,50.3228647 Z M114.532624,49.8591898 L114.757217,43.8633948 L115.780499,43.9017254 C117.635199,43.9711995 118.541404,44.9978403 118.467738,46.9644611 C118.428808,48.0037322 118.125256,48.8409563 117.595049,49.3174434 C117.115203,49.7317722 116.355346,49.9274662 115.364041,49.8903334 L114.532624,49.8591898 Z" id="Shape"></path>
                    <path d="M124.715438,51.4711932 L128.922701,51.3924333 L129.563536,53.1407452 C129.714997,53.53798 129.80247,53.9364126 129.823259,54.1920683 C129.823558,54.2080655 129.823858,54.2240627 129.824157,54.2400599 C129.834039,54.7679674 129.469997,54.9828187 128.462773,55.0336795 L128.470559,55.4496066 L133.685645,55.3519803 L133.677859,54.9360532 C133.148753,54.8819468 133.00418,54.8526476 132.826713,54.7759558 C132.455184,54.5908772 132.141654,54.0846567 131.755152,53.0997183 L128.08419,43.3587202 L126.902793,43.5088583 L123.664289,52.5950641 C122.979752,54.4962094 122.415533,55.1308809 121.376014,55.1663434 L121.3838,55.5822706 L125.49508,55.5053075 L125.487294,55.0893804 C124.43088,55.0771508 123.977568,54.7975863 123.965889,54.1736956 C123.959001,53.8057601 124.061698,53.3077507 124.290276,52.6953652 L124.715438,51.4711932 Z M128.703058,50.7724357 L124.92772,50.8431099 L126.782051,45.6074858 L128.703058,50.7724357 Z" id="Shape"></path>
                    <path d="M141.13504,49.1347011 L143.247527,45.1100744 C144.067711,43.5504018 144.633472,43.006716 145.660959,42.8107212 L145.627214,42.3960921 L141.417134,42.7387393 L141.45088,43.1533684 C141.931894,43.1463257 142.10991,43.1639433 142.387503,43.2216153 C142.715534,43.307288 142.942317,43.5296243 142.965679,43.8166752 C142.989041,44.1037261 142.862016,44.5153869 142.6152,45.0331146 L140.742667,48.6529424 L138.297756,45.2400238 C137.828615,44.603984 137.714761,44.3885096 137.692696,44.117406 C137.657653,43.6868297 137.994216,43.4828558 138.851475,43.3649271 L138.817729,42.950298 L133.794339,43.3591385 L133.828085,43.7737675 C134.585394,43.8084495 134.960894,44.0828937 135.774566,45.204586 L139.10213,49.7977943 L139.348732,52.8277757 C139.468139,54.2949246 139.336295,54.4501312 137.857092,54.6186782 L137.890838,55.0333073 L143.217226,54.5998066 L143.183481,54.1851776 C141.696491,54.2580411 141.541284,54.1261968 141.421877,52.6590479 L141.13504,49.1347011 Z" id="Path"></path>
                    <path d="M149.45736,54.0274574 C150.011838,53.8354314 150.213256,53.7744489 150.482544,53.7361315 C150.68847,53.7068299 150.896649,53.6933687 151.091243,53.698002 C152.24747,53.7597363 152.634402,53.7531624 153.26802,53.6630036 C154.424372,53.4984639 155.377241,53.039655 156.038345,52.347622 C156.672276,51.6917779 156.937556,50.716683 156.784286,49.6395329 C156.653556,48.7207873 156.264746,48.0326984 155.647282,47.5549178 C155.032072,47.0929777 154.290076,46.7622064 152.787863,46.3133516 C151.434977,45.8917323 151.005157,45.7104749 150.55505,45.3866535 C150.156973,45.0877511 149.917363,44.6531719 149.842982,44.1304373 C149.669427,42.9107232 150.38951,41.9517194 151.609224,41.7781637 C152.54381,41.6451796 153.383103,41.9782675 153.973268,42.718511 C154.382553,43.2097526 154.601752,43.728042 154.79359,44.6219313 L155.427207,44.5317726 L155.049042,40.9654817 C154.598622,41.2073456 154.383618,41.2864225 154.130171,41.322486 C153.971766,41.3450257 153.795267,41.3539789 153.566739,41.3380132 C152.344897,41.2694542 152.118622,41.2693289 151.595888,41.3437099 C150.740504,41.4654242 150.122664,41.6664661 149.620153,41.9965481 C148.540435,42.6996629 147.987647,43.925763 148.172473,45.2246793 C148.327996,46.3176698 148.832198,47.0216618 149.82977,47.5584842 C150.232418,47.7759304 150.626049,47.9300149 152.0649,48.3878856 C154.182447,49.0724065 154.892637,49.6339598 155.045907,50.7111099 C155.239748,52.073388 154.517411,53.0165514 153.123452,53.2149007 C151.349323,53.4673452 150.238864,52.4779119 149.679003,50.1334011 L149.045385,50.2235599 L149.45736,54.0274574 Z" id="Path"></path>
                    <path d="M170.489159,43.6174577 C172.504589,42.8372249 173.434401,41.5350322 173.056856,40.0131638 C172.871936,39.2677588 172.368606,38.6343149 171.728888,38.3149511 C170.941821,37.9332317 169.855369,37.8730589 168.752791,38.1465865 C166.687398,38.6589692 165.365263,40.1738844 165.723546,41.6181065 C165.846826,42.1150431 166.285021,42.2865807 166.999367,42.1093656 C167.37207,42.0169056 167.632334,41.8699142 167.749102,41.6760965 C167.85034,41.4861313 167.854431,41.3697214 167.742828,40.8534029 C167.642782,40.3836723 167.639764,39.906356 167.741361,39.518482 C167.86643,39.0258749 168.231785,38.7044476 168.806368,38.5619051 C169.908946,38.2883775 170.683859,38.953357 171.057552,40.4596962 C171.492884,42.2145037 170.803955,43.3580282 169.053,43.8088902 L168.61818,43.9167602 L168.737608,44.3981676 L169.203486,44.2825925 C170.042067,44.0745574 170.868613,44.0838129 171.345571,44.278704 C172.00479,44.5437749 172.492471,45.2470409 172.758294,46.3185606 C173.205184,48.1199559 172.733426,49.3414846 171.444497,49.6612422 C170.916501,49.7922273 170.369482,49.7136268 170.040111,49.4491521 C169.753357,49.2235603 169.43602,48.7417951 169.312621,48.3108281 C169.104347,47.6041867 169.096642,47.5731281 168.972647,47.472009 C168.802183,47.3164777 168.480159,47.2809704 168.107456,47.3734304 C167.377581,47.554498 167.027516,48.004012 167.173911,48.5941242 C167.520636,49.9917585 169.370564,50.6043534 171.57572,50.0572982 C174.091462,49.433193 175.328365,47.8405123 174.835244,45.8527657 C174.392207,44.0668996 172.926658,43.3424629 170.519979,43.7416919 L170.489159,43.6174577 Z" id="Path"></path>
                    <path d="M187.16858,32.607141 C188.417634,32.1549548 189.169837,32.102352 189.889096,32.4060001 C190.561115,32.6765361 191.161272,33.3356537 191.963121,34.6889013 L192.488227,34.4500215 L190.729909,30.7734973 L181.352206,34.426275 L182.543985,38.3234758 L183.092321,38.1442316 C182.799106,36.7302297 182.756387,35.8711517 182.988003,35.2314629 C183.277524,34.4318518 183.885326,33.9203672 185.200604,33.3737017 L188.638513,42.199775 C189.172782,43.5713945 189.081766,43.7785563 187.706852,44.348451 L187.857841,44.7360826 L192.911961,42.7674154 L192.760972,42.3797838 C191.34792,42.8958501 191.140758,42.8048338 190.606489,41.4332143 L187.16858,32.607141 Z" id="Path"></path>
                    <path d="M195.36519,35.2009437 C196.130773,36.6963643 197.294113,37.8803031 198.558993,38.4550376 C199.946122,39.0930105 201.655372,38.9908768 203.236245,38.1815462 C204.817119,37.3722157 205.870836,36.0598438 206.178517,34.5542103 C206.466026,33.1847278 206.178745,31.5702639 205.405871,30.0606012 C204.640288,28.5651806 203.498481,27.3881927 202.21936,26.8207495 C200.810697,26.1758257 199.137222,26.277619 197.556349,27.0869496 C195.961234,27.9035714 194.879032,29.2305258 194.599836,30.7215768 C194.326909,32.1195435 194.599607,33.7055231 195.36519,35.2009437 Z M197.444537,34.1364189 C196.606041,32.4985773 196.214157,31.1713385 196.216811,29.9476813 C196.220513,28.8313505 196.742024,27.9891662 197.753213,27.4714863 C198.764403,26.9538064 199.716779,27.023457 200.646118,27.6800976 C201.640398,28.3933661 202.473446,29.4588002 203.326524,31.1251261 C204.186894,32.805694 204.564195,34.1044486 204.561542,35.3281058 C204.557839,36.4444366 204.036328,37.2866209 203.039381,37.7970095 C202.028192,38.3146894 201.04004,38.2453793 200.132234,37.5956895 C199.130664,36.8681788 198.297615,35.8027447 197.444537,34.1364189 Z" id="Shape"></path>
                    <path d="M223.047042,24.606995 L221.322779,21.5599549 L220.828236,21.8127542 C221.504021,23.1165407 221.402096,23.7313279 220.378296,24.5518026 L216.757542,27.4534813 C216.50944,26.6066065 216.474026,26.1018829 216.613232,25.2521785 C216.767315,24.2675271 216.94176,23.7176462 217.849399,21.4729656 C218.195984,20.6005949 218.390266,19.8707849 218.402314,19.3485293 C218.426672,18.6113681 218.203715,17.9493816 217.703426,17.3251136 C216.542754,15.876812 214.728672,15.9158432 212.843383,17.4267173 C212.006864,18.0971052 211.482741,18.8246982 211.221074,19.6495194 C210.919558,20.6292992 211.055293,21.5662261 211.595605,22.2404355 C211.955814,22.6899084 212.413075,22.6720264 213.012373,22.1917485 C213.561728,21.7514938 213.626372,21.3716239 213.261117,20.8646833 C212.725764,20.1454916 212.638191,20.0106322 212.487929,19.618452 C212.234955,18.9190093 212.391868,18.3216666 212.97868,17.8513945 C213.86514,17.1409835 215.022282,17.3823769 215.892786,18.4686031 C216.222977,18.88062 216.435753,19.3252213 216.551126,19.8273777 C216.654013,20.33954 216.62948,20.8718013 216.435374,21.8065112 C215.962593,24.1332803 215.858538,25.1803584 215.96443,26.2847292 C216.072802,27.3666089 216.403431,28.2908755 217.07904,29.3897621 L223.047042,24.606995 Z" id="Path"></path>
                </g>
            </g>
        </g>
    </g>
</svg>